<svg xmlns="http://www.w3.org/2000/svg" width="28" height="41" fill="none" viewBox="0 0 28 41"><path fill="#5943b0" d="M.25 40.309v-.707h.706v.707H.25m.588 0v-.707h.706v.707H.838m.588 0v-.707h.706v.707h-.706m.589 0v-.707h.706v.707h-.707M.25 39.72v-.707h.706v.707H.25m2.353 0v-.707h.706v.707h-.707M.25 39.132v-.706h.706v.707H.25m2.353 0v-.706h.706v.707h-.707M.25 38.544v-.706h.706v.707H.25m2.353 0v-.706h.706v.707h-.707M.25 37.956v-.706h.706v.706H.25m2.353 0v-.706h.706v.706h-.707M.25 37.368v-.707h.706v.707H.25m2.353 0v-.707h.706v.707h-.707M.25 36.779v-.706h.706v.707H.25m2.353 0v-.706h.706v.707h-.707M.25 36.191v-.706h.706v.707H.25m2.353 0v-.706h.706v.707h-.707M.25 35.603v-.706h.706v.706H.25m2.353 0v-.706h.706v.706h-.707M.25 35.015v-.707h.706v.707H.25m2.353 0v-.707h.706v.707h-.707M.25 34.426v-.706h.706v.707H.25m.588 0v-.706h.706v.707H.838m.588 0v-.706h.706v.707h-.706m.589 0v-.706h.706v.707h-.707M4.371 40.309v-.707h.706v.707h-.706m2.353 0v-.707h.706v.707h-.706m-2.353-.588v-.707h.706v.707h-.706m2.353 0v-.707h.706v.707h-.706m-2.353-.589v-.706h.706v.707h-.706m2.353 0v-.706h.706v.707h-.706m-2.353-.588v-.706h.706v.707h-.706m.588 0v-.706h.706v.707H4.96m.589 0v-.706h.705v.707h-.706m.588 0v-.706h.706v.707h-.707m.588 0v-.706h.706v.707h-.706m-2.353-.588v-.706h.706v.706h-.706m2.353 0v-.706h.706v.706h-.706m-2.353-.588v-.707h.706v.707h-.706m2.353 0v-.707h.706v.707h-.706m-2.353-.589v-.706h.706v.707h-.706m2.353 0v-.706h.706v.707h-.706m-2.353-.588v-.706h.706v.707h-.706m2.353 0v-.706h.706v.707h-.706m-2.059-.588v-.706h.706v.706h-.706m1.765 0v-.706h.706v.706h-.707m-1.47-.588v-.707h.705v.707H4.96m1.176 0v-.707h.706v.707h-.707m-.883-.589v-.706h.706v.707h-.706m.589 0v-.706h.706v.707H5.84M8.492 40.309v-.707h.706v.707h-.706m.588 0v-.707h.706v.707H9.08m.589 0v-.707h.705v.707h-.706m.588 0v-.707h.706v.707h-.707m-1.765-.588v-.707h.706v.707h-.706m2.353 0v-.707h.706v.707h-.706m-2.353-.589v-.706h.706v.707h-.706m2.353 0v-.706h.706v.707h-.706m-2.353-.588v-.706h.706v.707h-.706m2.353 0v-.706h.706v.707h-.706m-2.353-.588v-.706h.706v.706h-.706m2.353 0v-.706h.706v.706h-.706m-2.353-.588v-.707h.706v.707h-.706m2.353 0v-.707h.706v.707h-.706m-2.353-.589v-.706h.706v.707h-.706m2.353 0v-.706h.706v.707h-.706m-2.353-.588v-.706h.706v.707h-.706m2.353 0v-.706h.706v.707h-.706m-2.353-.588v-.706h.706v.706h-.706m2.353 0v-.706h.706v.706h-.706m-2.353-.588v-.707h.706v.707h-.706m2.353 0v-.707h.706v.707h-.706m-2.353-.589v-.706h.706v.707h-.706m.588 0v-.706h.706v.707H9.08m.589 0v-.706h.705v.707h-.706m.588 0v-.706h.706v.707h-.707M12.613 40.309v-.707h.706v.707h-.706m2.353 0v-.707h.706v.707h-.706m-2.353-.588v-.707h.706v.707h-.706m2.353 0v-.707h.706v.707h-.706m-2.353-.589v-.706h.706v.707h-.706m2.353 0v-.706h.706v.707h-.706m-2.353-.588v-.706h.706v.707h-.706m.588 0v-.706h.706v.707h-.706m.589 0v-.706h.706v.707h-.707m.588 0v-.706h.706v.707h-.706m.588 0v-.706h.706v.707h-.706m-2.353-.588v-.706h.706v.706h-.706m2.353 0v-.706h.706v.706h-.706m-2.353-.588v-.707h.706v.707h-.706m2.353 0v-.707h.706v.707h-.706m-2.353-.589v-.706h.706v.707h-.706m2.353 0v-.706h.706v.707h-.706m-2.353-.588v-.706h.706v.707h-.706m2.353 0v-.706h.706v.707h-.706m-2.059-.588v-.706h.706v.706h-.706m1.765 0v-.706h.706v.706h-.706m-1.47-.588v-.707h.705v.707h-.706m1.176 0v-.707h.706v.707h-.706m-.882-.589v-.706h.705v.707h-.706m.588 0v-.706h.706v.707h-.707M17.323 40.309v-.707h.706v.707h-.707m.588 0v-.707h.706v.707h-.707m.588 0v-.707h.706v.707h-.706m-1.765-.588v-.707h.706v.707h-.706m2.353 0v-.707h.706v.707h-.706m-2.353-.589v-.706h.706v.707h-.706m2.353 0v-.706h.706v.707h-.706m-2.353-.588v-.706h.706v.707h-.706m0-.588v-.706h.706v.706h-.706m0-.588v-.707h.706v.707h-.706m0-.589v-.706h.706v.707h-.706m0-.588v-.706h.706v.707h-.706m0-.588v-.706h.706v.706h-.706m2.353 0v-.706h.706v.706h-.706m-2.353-.588v-.707h.706v.707h-.706m2.353 0v-.707h.706v.707h-.706m-1.764-.589v-.706h.706v.707h-.707m.588 0v-.706h.706v.707h-.707m.588 0v-.706h.706v.707h-.706M20.856 40.309v-.707h.705v.707h-.706m2.352 0v-.707h.706v.707h-.706m-2.352-.588v-.707h.705v.707h-.706m2.352 0v-.707h.706v.707h-.706m-2.352-.589v-.706h.705v.707h-.706m2.352 0v-.706h.706v.707h-.706m-2.352-.588v-.706h.705v.707h-.706m.588 0v-.706h.706v.707h-.707m.588 0v-.706h.706v.707h-.707m.588 0v-.706h.706v.707h-.706m.588 0v-.706h.706v.707h-.706m-2.352-.588v-.706h.705v.706h-.706m2.352 0v-.706h.706v.706h-.706m-2.352-.588v-.707h.705v.707h-.706m2.352 0v-.707h.706v.707h-.706m-2.352-.589v-.706h.705v.707h-.706m2.352 0v-.706h.706v.707h-.706m-2.352-.588v-.706h.705v.707h-.706m2.352 0v-.706h.706v.707h-.706m-2.058-.588v-.706h.706v.706h-.707m1.764 0v-.706h.706v.706h-.706m-1.47-.588v-.707h.706v.707h-.707m1.176 0v-.707h.706v.707h-.706m-.882-.589v-.706h.706v.707h-.707m.588 0v-.706h.706v.707h-.706M24.977 40.309v-.707h.705v.707h-.706m.588 0v-.707h.706v.707h-.707m.588 0v-.707h.706v.707h-.706m.588 0v-.707h.706v.707h-.706m-1.764-.588v-.707h.705v.707h-.706m0-.589v-.706h.705v.707h-.706m0-.588v-.706h.705v.707h-.706m0-.588v-.706h.705v.706h-.706m0-.588v-.707h.705v.707h-.706m0-.589v-.706h.705v.707h-.706m0-.588v-.706h.705v.707h-.706m0-.588v-.706h.705v.706h-.706m0-.588v-.707h.705v.707h-.706m0-.589v-.706h.705v.707h-.706M2.923 18.18s-.642 3.107.361 4.625 5.949-2.684 5.949-3.154.125-2.146.125-3.812c0-1.792.54-2.762.943-4.51.491-2.133 2.044-4.811 2.42-4.806.374.006 2.519 2.678 2.863 4.806.105.65.209 2.1-.136 3.373-.64 2.364-3.566 4.493-3.999 4.85-.432.358-.975 1.408 0 1.718 1.032.327 1.727.26 2.78 0 1.225-.303 2.778-1.619 2.778-1.619l3.24 2.648s1.579 1.229 1.86 1.084c.257-.131.448-.578.448-.578s.373-2.856 0-4.625c-.2-.94-.326-1.484-.772-2.34-.76-1.461-2.906-3.093-2.906-3.093s-.313-3.32-.949-5.347c-.472-1.505-.75-2.373-1.571-3.728 0 0-2.27-3.454-3.637-3.422S9.358 3.672 9.358 3.672C8.478 5.04 8.043 5.867 7.52 7.4c-.685 2.005-.86 5.347-.86 5.347s-1.992 2.2-2.627 3.092c-.567.798-1.11 2.341-1.11 2.341"/><path fill="#5943b0" d="M10.902 22.805c-.802.3-.909 1.19-.909 1.38 0 .191.116.561.198 1.056.243 1.459 2.354 3.009 2.354 3.009s1.774-1.627 1.986-3.01c.076-.495.129-.797 0-1.283-.225-.846-1.418.97-2.265.68-.557-.19-.813-2.039-1.364-1.832"/><path stroke="#5943b0" stroke-width=".5" d="M.25 40.309v-.707h.706v.707H.25Zm.588 0v-.707h.706v.707H.838Zm.588 0v-.707h.706v.707h-.706Zm.589 0v-.707h.706v.707h-.707ZM.25 39.72v-.707h.706v.707H.25Zm2.353 0v-.707h.706v.707h-.707ZM.25 39.132v-.706h.706v.707H.25Zm2.353 0v-.706h.706v.707h-.707ZM.25 38.544v-.706h.706v.707H.25Zm2.353 0v-.706h.706v.707h-.707ZM.25 37.956v-.706h.706v.706H.25Zm2.353 0v-.706h.706v.706h-.707ZM.25 37.368v-.707h.706v.707H.25Zm2.353 0v-.707h.706v.707h-.707ZM.25 36.779v-.706h.706v.707H.25Zm2.353 0v-.706h.706v.707h-.707ZM.25 36.191v-.706h.706v.707H.25Zm2.353 0v-.706h.706v.707h-.707ZM.25 35.603v-.706h.706v.706H.25Zm2.353 0v-.706h.706v.706h-.707ZM.25 35.015v-.707h.706v.707H.25Zm2.353 0v-.707h.706v.707h-.707ZM.25 34.426v-.706h.706v.707H.25Zm.588 0v-.706h.706v.707H.838Zm.588 0v-.706h.706v.707h-.706Zm.589 0v-.706h.706v.707h-.707ZM4.371 40.309v-.707h.706v.707h-.706Zm2.353 0v-.707h.706v.707h-.706Zm-2.353-.588v-.707h.706v.707h-.706Zm2.353 0v-.707h.706v.707h-.706Zm-2.353-.589v-.706h.706v.707h-.706Zm2.353 0v-.706h.706v.707h-.706Zm-2.353-.588v-.706h.706v.707h-.706Zm.588 0v-.706h.706v.707H4.96Zm.589 0v-.706h.705v.707h-.706Zm.588 0v-.706h.706v.707h-.707Zm.588 0v-.706h.706v.707h-.706Zm-2.353-.588v-.706h.706v.706h-.706Zm2.353 0v-.706h.706v.706h-.706Zm-2.353-.588v-.707h.706v.707h-.706Zm2.353 0v-.707h.706v.707h-.706Zm-2.353-.589v-.706h.706v.707h-.706Zm2.353 0v-.706h.706v.707h-.706Zm-2.353-.588v-.706h.706v.707h-.706Zm2.353 0v-.706h.706v.707h-.706Zm-2.059-.588v-.706h.706v.706h-.706Zm1.765 0v-.706h.706v.706h-.707Zm-1.47-.588v-.707h.705v.707H4.96Zm1.176 0v-.707h.706v.707h-.707Zm-.883-.589v-.706h.706v.707h-.706Zm.589 0v-.706h.706v.707H5.84ZM8.492 40.309v-.707h.706v.707h-.706Zm.588 0v-.707h.706v.707H9.08Zm.589 0v-.707h.705v.707h-.706Zm.588 0v-.707h.706v.707h-.707Zm-1.765-.588v-.707h.706v.707h-.706Zm2.353 0v-.707h.706v.707h-.706Zm-2.353-.589v-.706h.706v.707h-.706Zm2.353 0v-.706h.706v.707h-.706Zm-2.353-.588v-.706h.706v.707h-.706Zm2.353 0v-.706h.706v.707h-.706Zm-2.353-.588v-.706h.706v.706h-.706Zm2.353 0v-.706h.706v.706h-.706Zm-2.353-.588v-.707h.706v.707h-.706Zm2.353 0v-.707h.706v.707h-.706Zm-2.353-.589v-.706h.706v.707h-.706Zm2.353 0v-.706h.706v.707h-.706Zm-2.353-.588v-.706h.706v.707h-.706Zm2.353 0v-.706h.706v.707h-.706Zm-2.353-.588v-.706h.706v.706h-.706Zm2.353 0v-.706h.706v.706h-.706Zm-2.353-.588v-.707h.706v.707h-.706Zm2.353 0v-.707h.706v.707h-.706Zm-2.353-.589v-.706h.706v.707h-.706Zm.588 0v-.706h.706v.707H9.08Zm.589 0v-.706h.705v.707h-.706Zm.588 0v-.706h.706v.707h-.707ZM12.613 40.309v-.707h.706v.707h-.706Zm2.353 0v-.707h.706v.707h-.706Zm-2.353-.588v-.707h.706v.707h-.706Zm2.353 0v-.707h.706v.707h-.706Zm-2.353-.589v-.706h.706v.707h-.706Zm2.353 0v-.706h.706v.707h-.706Zm-2.353-.588v-.706h.706v.707h-.706Zm.588 0v-.706h.706v.707h-.706Zm.589 0v-.706h.706v.707h-.707Zm.588 0v-.706h.706v.707h-.706Zm.588 0v-.706h.706v.707h-.706Zm-2.353-.588v-.706h.706v.706h-.706Zm2.353 0v-.706h.706v.706h-.706Zm-2.353-.588v-.707h.706v.707h-.706Zm2.353 0v-.707h.706v.707h-.706Zm-2.353-.589v-.706h.706v.707h-.706Zm2.353 0v-.706h.706v.707h-.706Zm-2.353-.588v-.706h.706v.707h-.706Zm2.353 0v-.706h.706v.707h-.706Zm-2.059-.588v-.706h.706v.706h-.706Zm1.765 0v-.706h.706v.706h-.706Zm-1.47-.588v-.707h.705v.707h-.706Zm1.176 0v-.707h.706v.707h-.706Zm-.882-.589v-.706h.705v.707h-.706Zm.588 0v-.706h.706v.707h-.707ZM17.323 40.309v-.707h.706v.707h-.707Zm.588 0v-.707h.706v.707h-.707Zm.588 0v-.707h.706v.707h-.706Zm-1.765-.588v-.707h.706v.707h-.706Zm2.353 0v-.707h.706v.707h-.706Zm-2.353-.589v-.706h.706v.707h-.706Zm2.353 0v-.706h.706v.707h-.706Zm-2.353-.588v-.706h.706v.707h-.706Zm0-.588v-.706h.706v.706h-.706Zm0-.588v-.707h.706v.707h-.706Zm0-.589v-.706h.706v.707h-.706Zm0-.588v-.706h.706v.707h-.706Zm0-.588v-.706h.706v.706h-.706Zm2.353 0v-.706h.706v.706h-.706Zm-2.353-.588v-.707h.706v.707h-.706Zm2.353 0v-.707h.706v.707h-.706Zm-1.764-.589v-.706h.706v.707h-.707Zm.588 0v-.706h.706v.707h-.707Zm.588 0v-.706h.706v.707h-.706ZM20.856 40.309v-.707h.705v.707h-.706Zm2.352 0v-.707h.706v.707h-.706Zm-2.352-.588v-.707h.705v.707h-.706Zm2.352 0v-.707h.706v.707h-.706Zm-2.352-.589v-.706h.705v.707h-.706Zm2.352 0v-.706h.706v.707h-.706Zm-2.352-.588v-.706h.705v.707h-.706Zm.588 0v-.706h.706v.707h-.707Zm.588 0v-.706h.706v.707h-.707Zm.588 0v-.706h.706v.707h-.706Zm.588 0v-.706h.706v.707h-.706Zm-2.352-.588v-.706h.705v.706h-.706Zm2.352 0v-.706h.706v.706h-.706Zm-2.352-.588v-.707h.705v.707h-.706Zm2.352 0v-.707h.706v.707h-.706Zm-2.352-.589v-.706h.705v.707h-.706Zm2.352 0v-.706h.706v.707h-.706Zm-2.352-.588v-.706h.705v.707h-.706Zm2.352 0v-.706h.706v.707h-.706Zm-2.058-.588v-.706h.706v.706h-.707Zm1.764 0v-.706h.706v.706h-.706Zm-1.47-.588v-.707h.706v.707h-.707Zm1.176 0v-.707h.706v.707h-.706Zm-.882-.589v-.706h.706v.707h-.707Zm.588 0v-.706h.706v.707h-.706ZM24.977 40.309v-.707h.705v.707h-.706Zm.588 0v-.707h.706v.707h-.707Zm.588 0v-.707h.706v.707h-.706Zm.588 0v-.707h.706v.707h-.706Zm-1.764-.588v-.707h.705v.707h-.706Zm0-.589v-.706h.705v.707h-.706Zm0-.588v-.706h.705v.707h-.706Zm0-.588v-.706h.705v.706h-.706Zm0-.588v-.707h.705v.707h-.706Zm0-.589v-.706h.705v.707h-.706Zm0-.588v-.706h.705v.707h-.706Zm0-.588v-.706h.705v.706h-.706Zm0-.588v-.707h.705v.707h-.706Zm0-.589v-.706h.705v.707h-.706ZM2.923 18.18s-.642 3.107.361 4.625 5.949-2.684 5.949-3.154.125-2.146.125-3.812c0-1.792.54-2.762.943-4.51.491-2.133 2.044-4.811 2.42-4.806.374.006 2.519 2.678 2.863 4.806.105.65.209 2.1-.136 3.373-.64 2.364-3.566 4.493-3.999 4.85-.432.358-.975 1.408 0 1.718 1.032.327 1.727.26 2.78 0 1.225-.303 2.778-1.619 2.778-1.619l3.24 2.648s1.579 1.229 1.86 1.084c.257-.131.448-.578.448-.578s.373-2.856 0-4.625c-.2-.94-.326-1.484-.772-2.34-.76-1.461-2.906-3.093-2.906-3.093s-.313-3.32-.949-5.347c-.472-1.505-.75-2.373-1.571-3.728 0 0-2.27-3.454-3.637-3.422S9.358 3.672 9.358 3.672C8.478 5.04 8.043 5.867 7.52 7.4c-.685 2.005-.86 5.347-.86 5.347s-1.992 2.2-2.627 3.092c-.567.798-1.11 2.341-1.11 2.341Z"/><path stroke="#5943b0" stroke-width=".5" d="M10.902 22.805c-.802.3-.909 1.19-.909 1.38 0 .191.116.561.198 1.056.243 1.459 2.354 3.009 2.354 3.009s1.774-1.627 1.986-3.01c.076-.495.129-.797 0-1.283-.225-.846-1.418.97-2.265.68-.557-.19-.813-2.039-1.364-1.832Z"/></svg>